HIERARCHY
ROOT Hips
{
 OFFSET 0.000000 0.000000 0.000000
 CHANNELS 6 Xposition Yposition Zposition Yrotation Xrotation Zrotation
 JOINT Chest
 {
  OFFSET 0.000000 11.395451 -0.039534
  CHANNELS 3 Yrotation Xrotation Zrotation
  JOINT Chest2
  {
   OFFSET 0.000000 9.398669 0.071813
   CHANNELS 3 Yrotation Xrotation Zrotation
   JOINT Chest3
   {
    OFFSET 0.000000 8.489801 0.000000
    CHANNELS 3 Yrotation Xrotation Zrotation
    JOINT Chest4
    {
     OFFSET 0.000000 8.489801 0.000000
     CHANNELS 3 Yrotation Xrotation Zrotation
     JOINT Neck
     {
      OFFSET 0.000000 12.404889 0.000000
      CHANNELS 3 Yrotation Xrotation Zrotation
      JOINT Head
      {
       OFFSET 0.000000 8.903270 0.092239
       CHANNELS 3 Yrotation Xrotation Zrotation
       End Site
       {
        OFFSET 0.000000 17.592497 0.007158
       }
      }
     }
     JOINT RightCollar
     {
      OFFSET -3.196775 6.966722 0.000000
      CHANNELS 3 Yrotation Xrotation Zrotation
      JOINT RightShoulder
      {
       OFFSET -15.955896 0.000000 0.000000
       CHANNELS 3 Yrotation Xrotation Zrotation
       JOINT RightElbow
       {
        OFFSET -24.792472 0.000000 0.000000
        CHANNELS 3 Yrotation Xrotation Zrotation
        JOINT RightWrist
        {
         OFFSET -20.900115 0.000000 0.025002
         CHANNELS 3 Yrotation Xrotation Zrotation
         End Site
         {
          OFFSET -16.056692 0.000000 0.000000
         }
        }
       }
      }
     }
     JOINT LeftCollar
     {
      OFFSET 3.196775 6.966722 0.000000
      CHANNELS 3 Yrotation Xrotation Zrotation
      JOINT LeftShoulder
      {
       OFFSET 15.955896 0.000000 0.000000
       CHANNELS 3 Yrotation Xrotation Zrotation
       JOINT LeftElbow
       {
        OFFSET 24.792472 0.000000 0.000000
        CHANNELS 3 Yrotation Xrotation Zrotation
        JOINT LeftWrist
        {
         OFFSET 20.900115 0.000000 0.025002
         CHANNELS 3 Yrotation Xrotation Zrotation
         End Site
         {
          OFFSET 16.056692 0.000000 0.000000
         }
        }
       }
      }
     }
    }
   }
  }
 }
 JOINT RightHip
 {
  OFFSET -9.568995 0.193718 0.019767
  CHANNELS 3 Yrotation Xrotation Zrotation
  JOINT RightKnee
  {
   OFFSET 0.000000 -56.649296 0.015402
   CHANNELS 3 Yrotation Xrotation Zrotation
   JOINT RightAnkle
   {
    OFFSET 0.000000 -41.365147 0.021264
    CHANNELS 3 Yrotation Xrotation Zrotation
    JOINT RightToe
    {
     OFFSET 0.000000 -7.465940 17.672538
     CHANNELS 3 Yrotation Xrotation Zrotation
     End Site
     {
      OFFSET 0.000000 -1.736315 7.837145
     }
    }
   }
  }
 }
 JOINT LeftHip
 {
  OFFSET 9.568995 0.193718 0.019767
  CHANNELS 3 Yrotation Xrotation Zrotation
  JOINT LeftKnee
  {
   OFFSET 0.000000 -56.649296 0.015402
   CHANNELS 3 Yrotation Xrotation Zrotation
   JOINT LeftAnkle
   {
    OFFSET 0.000000 -41.365147 0.021264
    CHANNELS 3 Yrotation Xrotation Zrotation
    JOINT LeftToe
    {
     OFFSET 0.000000 -7.465940 17.672538
     CHANNELS 3 Yrotation Xrotation Zrotation
     End Site
     {
      OFFSET 0.000000 -1.736315 7.837145
     }
    }
   }
  }
 }
}
MOTION
Frames: 11
Frame Time: 0.016667
33.908767 104.388960 107.946895 -27.633131 2.222045 0.180994 -4.282367 7.433742 2.211709 -1.934645 3.283418 1.049569 -1.934645 3.283418 1.049569 -1.456236 2.459280 0.797374 -1.161637 14.569669 1.747506 -2.855847 -9.066769 3.730489 1.946740 -2.232150 5.153413 10.642849 -24.158035 48.749715 56.010917 -29.901338 22.876518 -10.557524 -8.527237 10.112313 10.189046 2.839223 -6.024882 3.574146 -21.492239 -56.026340 -50.168970 -38.853844 -30.700174 17.255259 -10.662333 -18.224588 15.310547 5.698516 4.897308 15.674850 20.112291 -0.585514 17.447622 -14.355191 -4.942671 0.282582 -5.956024 -9.469750 -1.129370 -20.908126 1.166843 1.938464 1.287868 0.560409 2.603364 -7.464379 -10.820916 0.000000 0.000000 0.000000
33.380030 104.189723 109.453676 -28.995482 2.298884 -0.038425 -4.158181 7.309061 2.148845 -1.878167 3.229263 1.018657 -1.878202 3.229314 1.018667 -1.413695 2.418921 0.773748 -0.976922 14.665786 1.628856 -2.459651 -8.900549 3.433172 1.973907 -2.158902 5.084579 10.357948 -24.009140 48.998972 55.948603 -29.797663 23.053110 -10.525821 -8.584428 10.065475 10.232239 2.909551 -6.017220 3.692690 -21.452660 -56.022013 -50.142624 -38.781531 -30.825938 17.390338 -10.567862 -18.204597 15.991665 6.055298 4.904051 15.563448 20.646945 -0.448451 18.247621 -14.125347 -4.610985 0.397685 -6.910209 -10.537091 -1.111684 -21.176537 0.916961 1.390126 2.775704 0.535349 0.233811 -7.807792 -9.049357 -0.000000 -0.000000 0.000000
32.807830 103.974009 111.017608 -30.253965 2.377189 -0.267569 -4.056021 7.142812 2.074752 -1.831093 3.156518 0.982813 -1.831117 3.156579 0.982826 -1.378092 2.364557 0.746417 -0.802757 14.785097 1.520591 -2.087279 -8.689238 3.159422 1.975132 -2.117180 4.991302 9.994879 -23.729463 49.291676 55.873892 -29.715568 23.288618 -10.472176 -8.652018 10.030946 10.317740 3.000797 -6.008101 3.784938 -21.406677 -55.985300 -50.104616 -38.687469 -31.017810 17.532325 -10.469457 -18.168065 16.506467 6.341444 4.877536 15.313717 21.363932 -0.283659 19.304823 -13.810297 -4.173371 0.550501 -7.989761 -11.845226 -0.955695 -21.537637 0.596242 0.342361 5.166069 0.478082 -2.589923 -7.838046 -6.109067 0.000000 -0.000000 0.000000
32.210920 103.779539 112.625248 -31.618923 2.374452 -0.430486 -3.896192 6.999069 1.943852 -1.757681 3.094329 0.921127 -1.757681 3.094329 0.921127 -1.322611 2.318128 0.699591 -0.637828 14.881528 1.425489 -1.738828 -8.518528 2.915445 1.947037 -2.191328 4.944830 9.606973 -23.309750 49.555792 55.804562 -29.651857 23.523836 -10.401730 -8.708695 10.045773 10.357607 2.921914 -6.009414 3.998940 -21.234820 -55.917837 -49.996040 -38.545995 -31.360185 17.639450 -10.368979 -18.143214 17.003362 6.551036 4.701500 14.891082 22.377645 -0.125511 20.793126 -13.383750 -3.284785 0.702213 -8.933287 -13.717182 -0.652788 -21.577794 0.173409 -1.748008 7.076804 0.545487 -3.635967 -7.002133 -3.853634 -0.000000 -0.000000 0.000000
31.573671 103.597010 114.296223 -33.286534 2.235770 -0.508055 -3.595838 6.900453 1.733319 -1.621003 3.053196 0.822434 -1.621010 3.053091 0.822408 -1.219585 2.287602 0.624753 -0.485156 14.929949 1.338263 -1.418234 -8.435431 2.692697 1.865938 -2.493699 4.989747 9.295172 -22.600306 49.716546 55.788408 -29.639070 23.682066 -10.308802 -8.760934 10.144050 10.330936 2.504350 -6.027912 4.449099 -20.816519 -55.784334 -49.762970 -38.339434 -31.987706 17.699545 -10.261613 -18.147882 17.619082 6.716129 4.348587 14.281348 23.715967 -0.083471 23.009428 -12.816178 -2.039448 0.877205 -10.050648 -17.655046 0.063136 -20.951260 -0.522660 -6.396585 7.735412 1.004284 -1.175076 -4.898652 -3.271983 -0.000000 0.000000 -0.000000
30.911712 103.435725 116.010905 -35.059962 2.020895 -0.511059 -3.236047 6.820068 1.465994 -1.457238 3.020674 0.697949 -1.457253 3.020558 0.697923 -1.096147 2.263704 0.530515 -0.341318 14.955641 1.265560 -1.120472 -8.393213 2.501232 1.751722 -2.908154 5.088951 8.968270 -21.753928 49.832346 55.775597 -29.646090 23.841331 -10.199459 -8.804050 10.291820 10.256729 1.916580 -6.046154 5.021494 -20.274701 -55.615570 -49.460730 -38.085974 -32.763970 17.724590 -10.149943 -18.163254 18.218044 6.796237 3.851618 13.486816 25.354387 -0.099129 25.705954 -12.122283 -0.388217 1.008687 -11.011640 -22.155674 0.920375 -20.009392 -1.336435 -12.092401 8.097449 1.711679 2.939273 -2.198346 -3.626874 -0.000000 0.000000 -0.000000
30.290677 103.361307 117.696964 -36.560131 1.822631 -0.411453 -2.983127 6.748054 1.162111 -1.340392 2.991636 0.559015 -1.340392 2.991636 0.559015 -1.007805 2.242516 0.425735 -0.195916 14.988699 1.227775 -0.832922 -8.335993 2.374612 1.668300 -3.176268 5.186516 8.382664 -21.211909 50.040952 55.641102 -29.570684 24.172492 -10.095023 -8.798984 10.424307 10.107520 1.473989 -6.044092 5.523638 -19.854173 -55.520315 -49.192486 -37.813816 -33.367890 17.708375 -10.045599 -18.161841 18.541822 6.674463 3.187451 12.505106 27.341164 0.035655 28.278266 -11.327946 2.226797 0.811579 -10.709234 -22.983115 1.139263 -19.383240 -1.821429 -14.865946 9.110285 2.061071 5.511825 -0.304875 -4.188246 0.000000 -0.000000 0.000000
29.758477 103.421757 119.345054 -37.502673 1.667461 -0.137456 -2.963123 6.673961 0.797014 -1.326099 2.961248 0.396314 -1.326094 2.961351 0.396330 -0.996273 2.220236 0.303624 -0.038247 15.060366 1.256975 -0.547073 -8.205773 2.368395 1.651496 -3.236622 5.287286 7.253533 -21.164614 50.443142 55.245028 -29.325053 24.872271 -9.986379 -8.699437 10.519683 9.819933 1.291858 -6.030429 5.966687 -19.637944 -55.594172 -48.958691 -37.466713 -33.703732 17.604243 -9.945560 -18.124188 18.548611 6.368643 2.286827 11.055031 29.694345 0.381816 30.973977 -10.352493 6.207419 0.179469 -7.793534 -16.755050 -0.047240 -19.447988 -1.612332 -11.769187 11.158869 1.663002 4.660780 0.140212 -4.681070 0.000000 0.000000 0.000000
29.267201 103.569075 120.964522 -38.173026 1.533228 0.234062 -3.050022 6.608638 0.392703 -1.358849 2.934698 0.217751 -1.358859 2.934789 0.217759 -1.019979 2.200682 0.169821 0.120298 15.140815 1.319938 -0.272443 -8.058607 2.425209 1.668987 -3.151756 5.378657 5.844637 -21.401008 50.969757 54.740768 -28.976787 25.730810 -9.878719 -8.551509 10.600331 9.459124 1.257391 -6.006883 6.339567 -19.544705 -55.746376 -48.753165 -37.101888 -33.868547 17.458611 -9.850479 -18.068803 18.296828 5.853084 1.226914 9.414127 32.435654 0.795470 33.669369 -9.196149 11.119509 -0.143775 -3.352119 -7.066116 -1.870976 -19.805163 -1.051516 -5.765658 13.713118 1.102967 2.287948 -0.185480 -5.115904 0.000000 0.000000 0.000000
28.738757 103.724883 122.511081 -39.046131 1.439118 0.503664 -3.034224 6.576998 0.038436 -1.346802 2.922816 0.060124 -1.346802 2.922816 0.060124 -1.010170 2.191993 0.051529 0.256674 15.167962 1.338948 -0.024050 -8.010477 2.409041 1.687669 -2.852698 5.370543 4.730623 -21.766809 51.517207 54.435639 -28.675101 26.319629 -9.816656 -8.451891 10.666975 9.192389 1.343214 -5.949089 6.416757 -19.566048 -55.813938 -48.669773 -36.917132 -33.834722 17.404121 -9.780642 -18.025731 17.682245 4.934850 0.218470 8.429707 35.606596 1.199685 35.188556 -7.934937 16.292589 0.000000 -0.000000 0.000000 -2.779637 -19.945703 -0.785326 -1.774149 15.976125 0.802169 1.008352 -0.808889 -5.238560 0.000000 0.000000 0.000000
28.134346 103.859730 123.951153 -40.332607 1.415946 0.588777 -2.810824 6.602229 -0.246995 -1.243563 2.935694 -0.069532 -1.243541 2.935652 -0.069532 -0.932104 2.201867 -0.046161 0.356713 15.086736 1.298905 0.176780 -8.163452 2.297195 1.694134 -2.188366 5.187189 4.040007 -22.380457 52.168036 54.471564 -28.446354 26.508987 -9.837481 -8.433265 10.717558 9.106845 1.633916 -5.821411 5.920094 -19.771383 -55.682549 -48.825998 -37.075463 -33.446535 17.524322 -9.753158 -18.009678 16.589172 3.414126 -0.654439 8.688692 39.434923 1.670945 34.942656 -6.411519 22.110493 0.041208 0.906138 1.642724 -1.959035 -19.710729 -1.183640 -2.334588 17.628784 0.653885 2.291466 -1.777786 -5.016442 0.000000 -0.000000 0.000000
